{"accessors" : [{"bufferView" : 0, "byteOffset" : 0, "componentType" : 5123, "count" : 10440, "type" : "SCALAR", "max" : [1888], "min" : [0]}, {"bufferView" : 1, "byteOffset" : 0, "componentType" : 5126, "count" : 1889, "type" : "VEC3", "max" : [6000, 6000, 6000], "min" : [-6000, -6000, -6000], "name" : "POSITION"}, {"bufferView" : 1, "byteOffset" : 12, "componentType" : 5126, "count" : 1889, "type" : "VEC2", "max" : [1, 1], "min" : [0, 0], "name" : "TEXCOORD_0"}], "asset" : {"generator" : "Aspose.3D 24.6.0", "version" : "2.0"}, "buffers" : [{"uri" : "data:application/octet-stream;base64,", "byteLength" : 58668}], "bufferViews" : [{"buffer" : 0, "byteOffset" : 0, "byteLength" : 20880, "target" : 34963}, {"buffer" : 0, "byteOffset" : 20884, "byteLength" : 37780, "byteStride" : 20, "target" : 34962}], "meshes" : [{"primitives" : [{"attributes" : {"POSITION" : 1, "TEXCOORD_0" : 2}, "indices" : 0, "mode" : 4}], "name" : ""}], "nodes" : [{"mesh" : 0, "name" : "Esfera"}], "scene" : 0, "scenes" : [{"nodes" : [0]}]}